<svg id="Capa_1" enable-background="new 0 0 512 512" height="512" viewBox="0 0 512 512" width="512" xmlns="http://www.w3.org/2000/svg"><g><g><path d="m338.806 266.118h-300.192s-21.211 63.946-21.211 87.691 48.362 71.234 171.307 71.234 171.307-47.489 171.307-71.234-21.211-87.691-21.211-87.691z" fill="#636978"/></g><g><path d="m188.614 28.5c-13.077 0-25.783 1.581-37.95 4.54-4.283-14.89-15.68-25.54-29.072-25.54-17.058 0-30.887 17.278-30.887 38.592 0 1.566.083 3.106.228 4.623-14.203-9.374-31.475-9.532-41.663.656-12.062 12.062-9.623 34.058 5.448 49.129.053.053.108.101.161.153-16.598 25.217-26.266 55.401-26.266 87.848v50.245h320v-50.246c.001-88.365-71.633-160-159.999-160z" fill="#707789"/></g><g><path d="m188.611 129.655c-63.084-33.113-37.946-96.519-37.946-96.519-4.283-14.89-15.68-25.54-29.072-25.54-17.058 0-30.887 17.278-30.887 38.592 0 1.566.083 3.106.228 4.623-14.203-9.374-31.475-9.532-41.663.656-12.062 12.062-9.623 34.058 5.448 49.129.053.053.108.101.161.153-16.598 25.217-26.266 55.401-26.266 87.848v30.245h159.997z" fill="#636978"/></g><g><path d="m307.446 480.707c-11.054-55.475-60.014-97.282-118.738-97.282s-107.684 41.808-118.738 97.282c-2.456 12.324 7.076 23.793 19.643 23.793h198.191c12.566 0 22.098-11.469 19.642-23.793z" fill="#ff9b87"/></g><g><path d="m217.247 386.813c-9.151-2.211-18.706-3.388-28.537-3.388-58.724 0-107.684 41.808-118.738 97.282-2.456 12.324 7.076 23.793 19.643 23.793h35.081c-.001-57.042 39.449-104.862 92.551-117.687z" fill="#ff8870"/></g><g><g><circle cx="188.71" cy="396.128" fill="#ffe4c2" r="40.53"/></g><g><path d="m227.618 384.78c-4.91-16.858-20.465-29.182-38.908-29.182-22.384 0-40.53 18.146-40.53 40.531 0 9.743 3.44 18.682 9.169 25.672 18.187-19.438 42.704-32.877 70.269-37.021z" fill="#f2d1a5"/></g></g><g><circle cx="333.839" cy="251.131" fill="#ffe4c2" r="36.081"/></g><g><circle cx="43.581" cy="251.131" fill="#f2d1a5" r="36.081"/></g><g><path d="m329.256 215.35c-85.431 0-140.546-85.791-140.546-85.791s-55.115 85.791-140.546 85.791h-.001c-2.905 11.445-4.453 23.43-4.453 35.779 0 80.081 64.919 145 145 145s145-64.919 145-145c0-12.349-1.548-24.334-4.454-35.779z" fill="#fff2de"/></g><g><path d="m93.711 251.128c0-16.497 2.761-32.348 7.836-47.123-16.026 6.88-33.915 11.344-53.384 11.344-2.905 11.445-4.453 23.43-4.453 35.779 0 80.081 64.919 145 145 145 8.526 0 16.878-.743 25-2.154-68.165-11.848-119.999-71.29-119.999-142.846z" fill="#ffe4c2"/></g><g><path d="m238.71 179.559h-100c-27.614 0-50-22.386-50-50 0-27.614 22.386-50 50-50h100c27.614 0 50 22.386 50 50 0 27.615-22.386 50-50 50z" fill="#bfe1ff"/></g><g><path d="m148.71 129.559c0-27.614 22.386-50 50-50h-60c-27.614 0-50 22.386-50 50 0 27.614 22.386 50 50 50h60c-27.614 0-50-22.385-50-50z" fill="#a3d4ff"/></g><g><g><g><ellipse cx="105.642" cy="279.09" fill="#ffa1ac" rx="30.65" ry="24.408"/></g><g><ellipse cx="271.778" cy="278.934" fill="#ffa1ac" rx="30.65" ry="24.408"/></g></g><g><path d="m123.467 260.739c-6.25 0-12.194-2.703-16.312-7.418-2.725-3.12-2.404-7.858.716-10.583 3.119-2.723 7.858-2.403 10.582.716 1.269 1.452 3.096 2.285 5.014 2.285h.006c1.921-.002 3.749-.838 5.014-2.294 2.718-3.125 7.456-3.456 10.581-.737 3.125 2.718 3.456 7.455.738 10.581-4.113 4.729-10.061 7.444-16.32 7.45-.005 0-.012 0-.019 0z"/></g><g><path d="m253.877 260.616c-6.25 0-12.194-2.703-16.312-7.418-2.725-3.12-2.404-7.858.716-10.583 3.12-2.723 7.858-2.403 10.582.716 1.269 1.452 3.096 2.285 5.014 2.285h.006c1.92-.002 3.748-.838 5.014-2.294 2.718-3.126 7.456-3.455 10.581-.737s3.456 7.455.738 10.581c-4.113 4.729-10.061 7.444-16.319 7.45-.006 0-.013 0-.02 0z"/></g><g><path d="m205.177 272.262c-2.092 0-4.173-.87-5.657-2.572-2.73-3.132-6.67-4.928-10.811-4.928s-8.081 1.796-10.811 4.928c-2.722 3.122-7.46 3.447-10.582.726-3.123-2.722-3.447-7.459-.726-10.581 5.58-6.401 13.641-10.072 22.118-10.072s16.539 3.671 22.118 10.072c2.722 3.122 2.397 7.859-.726 10.581-1.419 1.238-3.175 1.846-4.923 1.846z"/></g></g><g><circle cx="444.5" cy="175.05" fill="#f5fafc" r="60"/></g><g><path d="m424.5 215.05c0-11.046 8.954-20 20-20v-80c-33.137 0-60 26.863-60 60s26.863 60 60 60c-11.046 0-20-8.954-20-20z" fill="#e1f1fa"/></g><g><path d="m444.5 7.5c-11.046 0-20 8.954-20 20v40h40v-40c0-11.046-8.954-20-20-20z" fill="#e1f1fa"/></g><g><path d="m444.5 47.5c-11.046 0-20 8.954-20 20v107.55c0 11.046 8.954 20 20 20 11.046 0 20-8.954 20-20v-107.55c0-11.046-8.954-20-20-20z" fill="#ff9b87"/></g><g><path d="m444.5 138.532c-11.046 0-20-8.954-20-20v56.518c0 11.046 8.954 20 20 20s20-8.954 20-20v-56.518c0 11.046-8.954 20-20 20z" fill="#ff8870"/></g><g><path d="m377.42 251.131c0-15.896-8.558-29.825-21.306-37.439v-25.192c0-92.359-75.141-167.5-167.5-167.5-11.148 0-22.276 1.107-33.167 3.297-6.587-14.777-19.534-24.297-33.854-24.297-19.096 0-34.979 16.828-37.905 38.783-14.607-5.113-29.812-2.624-39.72 7.284-13.8 13.8-12.798 37.658 1.529 55.382-15.97 26.196-24.383 56.168-24.383 87.051v25.302c-12.642 7.638-21.114 21.512-21.114 37.329 0 16.768 9.525 31.346 23.444 38.631-6.553 22.366-13.541 49.602-13.541 64.047 0 21.868 28.029 50.7 81.745 66.458-14.425 16.618-24.63 36.881-29.033 58.975-1.604 8.047.471 16.312 5.691 22.676 5.257 6.407 13.023 10.082 21.307 10.082h198.191c8.284 0 16.05-3.675 21.307-10.083 5.221-6.363 7.295-14.629 5.691-22.676-4.403-22.095-14.606-42.358-29.03-58.975 53.716-15.757 81.745-44.591 81.745-66.458 0-14.438-6.982-41.661-13.541-64.047 13.919-7.285 23.444-21.862 23.444-38.63zm-341.306-62.631c0-29.896 8.655-58.847 25.03-83.725 1.957-2.972 1.555-6.91-.961-9.427-.072-.071-.145-.142-.222-.215-12.068-12.119-14.489-29.357-5.386-38.46 7.438-7.438 20.691-7.315 32.228.301 2.412 1.59 5.521 1.656 7.997.168 2.475-1.488 3.876-4.266 3.601-7.142-.131-1.369-.194-2.648-.194-3.909-.001-17.144 10.49-31.091 23.386-31.091 9.617 0 18.404 8.083 21.863 20.113 1.111 3.864 5.073 6.163 8.981 5.214 11.803-2.871 23.975-4.327 36.177-4.327 84.089 0 152.5 68.411 152.5 152.5v19.669c-2.368-.4-4.796-.619-7.275-.619-1.688 0-3.393.1-5.068.294-24.942-.1-49.563-7.913-73.403-23.254 23.607-7.16 40.842-29.116 40.842-55.031 0-31.706-25.794-57.5-57.5-57.5h-100c-31.706 0-57.5 25.794-57.5 57.5 0 25.915 17.236 47.871 40.843 55.031-23.856 15.353-48.496 23.165-73.458 23.254-1.655-.19-3.338-.295-5.013-.295-2.547 0-5.039.232-7.467.653v-19.702zm152.596 215.129c11.253 0 22.222-1.236 32.787-3.56-1.955 16.361-15.908 29.091-32.787 29.091-16.88 0-30.833-12.729-32.788-29.091 10.566 2.324 21.534 3.56 32.788 3.56zm0-15c-75.818 0-137.5-61.683-137.5-137.5 0-9.573.989-19.105 2.943-28.41 31.088-1.362 61.449-13.344 90.367-35.659h88.381c28.919 22.314 59.281 34.296 90.367 35.659 1.954 9.306 2.942 18.837 2.942 28.41 0 75.817-61.682 137.5-137.5 137.5zm50-216.569h-100c-23.435 0-42.5-19.065-42.5-42.5s19.065-42.5 42.5-42.5h100c23.435 0 42.5 19.065 42.5 42.5s-19.065 42.5-42.5 42.5zm-223.71 79.071c0-14.136 10.318-25.901 23.817-28.177-1.73 9.26-2.607 18.7-2.607 28.175 0 9.627.907 19.044 2.621 28.181-13.506-2.27-23.831-14.038-23.831-28.179zm9.903 102.678c0-10.153 4.541-31.15 12.839-59.499 1.581.213 3.188.339 4.817.377 12.93 43.306 44.618 78.593 85.6 96.393-8.8 4.718-16.975 10.426-24.383 16.968-59.496-15.116-78.873-42.917-78.873-54.239zm272.611 138.594c-2.396 2.921-5.936 4.597-9.71 4.597h-198.191c-3.774 0-7.313-1.676-9.71-4.597-2.36-2.877-3.3-6.606-2.577-10.23 7.069-35.476 31.074-65.611 63.652-80.747 2.646 24 23.039 42.734 47.732 42.734s45.086-18.733 47.732-42.734c32.578 15.136 56.58 45.267 63.649 80.747.722 3.624-.217 7.353-2.577 10.23zm55.003-138.594c0 11.32-19.376 39.124-78.873 54.237-7.408-6.541-15.583-12.249-24.383-16.967 40.982-17.8 72.671-53.087 85.601-96.393 1.629-.038 3.236-.164 4.816-.377 8.299 28.351 12.839 49.347 12.839 59.5zm-13.928-74.499c1.714-9.137 2.621-18.554 2.621-28.181 0-9.475-.877-18.915-2.608-28.175 13.499 2.275 23.818 14.04 23.818 28.177 0 14.141-10.325 25.909-23.831 28.179z"/><path d="m472 113.392v-85.892c0-15.163-12.336-27.5-27.5-27.5s-27.5 12.337-27.5 27.5v85.896c-24.113 10.77-40 34.956-40 61.654 0 37.22 30.28 67.5 67.5 67.5s67.5-30.28 67.5-67.5c0-26.728-15.877-50.889-40-61.658zm-40-45.892c0-6.893 5.607-12.5 12.5-12.5s12.5 5.607 12.5 12.5v107.55c0 6.893-5.607 12.5-12.5 12.5s-12.5-5.607-12.5-12.5zm12.5-52.5c6.893 0 12.5 5.607 12.5 12.5v15.518c-3.753-1.925-8-3.018-12.5-3.018s-8.747 1.093-12.5 3.018v-15.518c0-6.893 5.607-12.5 12.5-12.5zm0 212.55c-28.949 0-52.5-23.552-52.5-52.5 0-18.417 9.721-35.294 25-44.722v44.722c0 15.163 12.336 27.5 27.5 27.5s27.5-12.337 27.5-27.5v-44.723c15.284 9.423 25 26.285 25 44.723 0 28.948-23.551 52.5-52.5 52.5z"/><circle cx="188.71" cy="129.559" r="7.5"/><circle cx="233.71" cy="129.559" r="7.5"/><circle cx="143.71" cy="129.559" r="7.5"/><circle cx="211.111" cy="109.559" r="7.5"/><circle cx="166.111" cy="109.559" r="7.5"/><circle cx="211.111" cy="149.559" r="7.5"/><circle cx="166.111" cy="149.559" r="7.5"/></g></g></svg>